<svg xmlns="http://www.w3.org/2000/svg" xml:space="preserve" viewBox="6.211 3.343 64.896 64.991"><g fill="#FFF"><path d="M60.479 26.781a2 2 0 0 0-2 2v35.553H10.211V15.177h34.41a2 2 0 0 0 0-4H8.211a2 2 0 0 0-2 2v53.157a2 2 0 0 0 2 2H60.48a2 2 0 0 0 2-2V28.781a2.002 2.002 0 0 0-2.001-2z"/><path d="M71.067 4.951c-.012-.06-.034-.114-.051-.171-.021-.068-.036-.136-.063-.202-.027-.067-.065-.128-.101-.192-.027-.051-.05-.104-.083-.152a1.995 1.995 0 0 0-.555-.555c-.047-.032-.099-.053-.148-.081-.064-.036-.127-.075-.195-.103-.065-.027-.133-.042-.2-.062-.058-.017-.113-.04-.173-.051a1.99 1.99 0 0 0-.392-.04H49.315a2 2 0 0 0 0 4h14.963L33.28 38.341a2 2 0 1 0 2.828 2.828l30.998-30.998v14.805a2 2 0 0 0 4 0V5.343a1.99 1.99 0 0 0-.039-.392z"/></g></svg>